/* XPM */
static char *iconbitmap[] = {
/* columns rows colors chars-per-pixel */
"66 66 3 1 ",
"  c black",
". c #C0C0C0",
"X c white",
/* pixels */
"..................................................................",
"..................................................................",
"..XXXXXXXXXXXXXX..XXXXXXXXXXXXXX..XXXXXXXXXXXXXX..XXXXXXXXXXXXXX..",
"..XXXXXXXXXXXXXX..XXXXXXXXXXXXXX..XXXXXXXXXXXXXX..XXXXXXXXXXXXXX..",
"..XXXXXXXXXXXXXX..XXXXXXXXXXXXXX..XXXXXXXXXXXXXX..XXXXXXXXXXXXXX..",
"..XXXXXXXXXXXXXX..XXXXXXXXXXXXXX..XXXXXXXXXXXXXX..XXXXXXXXXXXXXX..",
"..XXXXXXXXXXXXXX..XXXXXXXXXXXXXX..XXXXXXXXXXXXXX..XXXXXXXXXXXXXX..",
"..XXXXXXXXXXXXXX..XXXXXXXXXXXXXX..XXXXXXXXXXXXXX..XXXXXXXXXXXXXX..",
"..XXXXXXXXXXXXXX..XXXXXXXXXXXXXX..XXXXXXXXXXXXXX..XXXXXXXXXXXXXX..",
"..XXXXXXXXXXXXXX..XXXXXXXXXXXXXX..XXXXXXXXXXXXXX..XXXXXXXXXXXXXX..",
"..XXXXXXXXXXXXXX..XXXXXXXXXXXXXX..XXXXXXXXXXXXXX..XXXXXXXXXXXXXX..",
"..XXXXXXXXXXXXXX..XXXXXXXXXXXXXX..XXXXXXXXXXXXXX..XXXXXXXXXXXXXX..",
"..XXXXXXXXXXXXXX..XXXXXXXXXXXXXX..XXXXXXXXXXXXXX..XXXXXXXXXXXXXX..",
"..XXXXXXXXXXXXXX..XXXXXXXXXXXXXX..XXXXXXXXXXXXXX..XXXXXXXXXXXXXX..",
"..XXXXXXXXXXXXXX..XXXXXXXXXXXXXX..XXXXXXXXXXXXXX..XXXXXXXXXXXXXX..",
"..XXXXXXXXXXXXXX..XXXXXXXXXXXXXX..XXXXXXXXXXXXXX..XXXXXXXXXXXXXX..",
"..................................................................",
"..................................................................",
"..XXXXXXXXXXXXXX..              ..              ..XXXXXXXXXXXXXX..",
"..XXXXXXXXXXXXXX..              ..              ..XXXXXXXXXXXXXX..",
"..XXXXXXXXXXXXXX..              ..              ..XXXXXXXXXXXXXX..",
"..XXXXXXXXXXXXXX..              ..              ..XXXXXXXXXXXXXX..",
"..XXXXXXXXXXXXXX..              ..              ..XXXXXXXXXXXXXX..",
"..XXXXXXXXXXXXXX..              ..              ..XXXXXXXXXXXXXX..",
"..XXXXXXXXXXXXXX..              ..              ..XXXXXXXXXXXXXX..",
"..XXXXXXXXXXXXXX..              ..              ..XXXXXXXXXXXXXX..",
"..XXXXXXXXXXXXXX..              ..              ..XXXXXXXXXXXXXX..",
"..XXXXXXXXXXXXXX..              ..              ..XXXXXXXXXXXXXX..",
"..XXXXXXXXXXXXXX..              ..              ..XXXXXXXXXXXXXX..",
"..XXXXXXXXXXXXXX..              ..              ..XXXXXXXXXXXXXX..",
"..XXXXXXXXXXXXXX..              ..              ..XXXXXXXXXXXXXX..",
"..XXXXXXXXXXXXXX..              ..              ..XXXXXXXXXXXXXX..",
"..................................................................",
"..................................................................",
"..XXXXXXXXXXXXXX..              ..              ..XXXXXXXXXXXXXX..",
"..XXXXXXXXXXXXXX..              ..              ..XXXXXXXXXXXXXX..",
"..XXXXXXXXXXXXXX..              ..              ..XXXXXXXXXXXXXX..",
"..XXXXXXXXXXXXXX..              ..              ..XXXXXXXXXXXXXX..",
"..XXXXXXXXXXXXXX..              ..              ..XXXXXXXXXXXXXX..",
"..XXXXXXXXXXXXXX..              ..              ..XXXXXXXXXXXXXX..",
"..XXXXXXXXXXXXXX..              ..              ..XXXXXXXXXXXXXX..",
"..XXXXXXXXXXXXXX..              ..              ..XXXXXXXXXXXXXX..",
"..XXXXXXXXXXXXXX..              ..              ..XXXXXXXXXXXXXX..",
"..XXXXXXXXXXXXXX..              ..              ..XXXXXXXXXXXXXX..",
"..XXXXXXXXXXXXXX..              ..              ..XXXXXXXXXXXXXX..",
"..XXXXXXXXXXXXXX..              ..              ..XXXXXXXXXXXXXX..",
"..XXXXXXXXXXXXXX..              ..              ..XXXXXXXXXXXXXX..",
"..XXXXXXXXXXXXXX..              ..              ..XXXXXXXXXXXXXX..",
"..................................................................",
"..................................................................",
"..XXXXXXXXXXXXXX..XXXXXXXXXXXXXX..XXXXXXXXXXXXXX..XXXXXXXXXXXXXX..",
"..XXXXXXXXXXXXXX..XXXXXXXXXXXXXX..XXXXXXXXXXXXXX..XXXXXXXXXXXXXX..",
"..XXXXXXXXXXXXXX..XXXXXXXXXXXXXX..XXXXXXXXXXXXXX..XXXXXXXXXXXXXX..",
"..XXXXXXXXXXXXXX..XXXXXXXXXXXXXX..XXXXXXXXXXXXXX..XXXXXXXXXXXXXX..",
"..XXXXXXXXXXXXXX..XXXXXXXXXXXXXX..XXXXXXXXXXXXXX..XXXXXXXXXXXXXX..",
"..XXXXXXXXXXXXXX..XXXXXXXXXXXXXX..XXXXXXXXXXXXXX..XXXXXXXXXXXXXX..",
"..XXXXXXXXXXXXXX..XXXXXXXXXXXXXX..XXXXXXXXXXXXXX..XXXXXXXXXXXXXX..",
"..XXXXXXXXXXXXXX..XXXXXXXXXXXXXX..XXXXXXXXXXXXXX..XXXXXXXXXXXXXX..",
"..XXXXXXXXXXXXXX..XXXXXXXXXXXXXX..XXXXXXXXXXXXXX..XXXXXXXXXXXXXX..",
"..XXXXXXXXXXXXXX..XXXXXXXXXXXXXX..XXXXXXXXXXXXXX..XXXXXXXXXXXXXX..",
"..XXXXXXXXXXXXXX..XXXXXXXXXXXXXX..XXXXXXXXXXXXXX..XXXXXXXXXXXXXX..",
"..XXXXXXXXXXXXXX..XXXXXXXXXXXXXX..XXXXXXXXXXXXXX..XXXXXXXXXXXXXX..",
"..XXXXXXXXXXXXXX..XXXXXXXXXXXXXX..XXXXXXXXXXXXXX..XXXXXXXXXXXXXX..",
"..XXXXXXXXXXXXXX..XXXXXXXXXXXXXX..XXXXXXXXXXXXXX..XXXXXXXXXXXXXX..",
"..................................................................",
".................................................................."
};
